# xmcd CD database file
#
# Track frame offsets:
#	150
#	25044
#	46807
#	56857
#	86242
#	96302
#	113502
#	136547
#	155513
#	177793
#	207924
#	217714
#
# Disc length: 3271 seconds
#
# Revision: 0
# Processed by: cddbd v1.5.2PL0 Copyright (c) Steve Scherf et al.
# Submitted via: CDex 1.70beta2
#
DISCID=950cc50c
DTITLE=Johnnie Valentino - Searching Souls
DYEAR=2000
DGENRE=Jazz
TTITLE0=Up And Down
TTITLE1=Searching Souls
TTITLE2=Black Cat
TTITLE3=Vapor Burn
TTITLE4=This Or That
TTITLE5=Dark Matter
TTITLE6=Ugly Beauty
TTITLE7=The Harvest
TTITLE8=Nono
TTITLE9=Littleton
TTITLE10=My Old Kentucky Home
TTITLE11=Spiritual Blessing
EXTD=YEAR: 2000
EXTT0=
EXTT1=
EXTT2=
EXTT3=
EXTT4=
EXTT5=
EXTT6=
EXTT7=
EXTT8=
EXTT9=
EXTT10=
EXTT11=
PLAYORDER=
